Coordinates
version=1
nRows=14
nColumns=36
inDegrees=yes

Units are S.I. units (second, meters, Newtons, ...)
If the header above contains a line with 'inDegrees', this indicates whether rotational values are in degrees (yes) or radians (no).

endheader
time	pelvis_tilt	pelvis_list	pelvis_rotation	pelvis_tx	pelvis_ty	pelvis_tz	hip_flexion_r	hip_adduction_r	hip_rotation_r	knee_angle_r	knee_angle_r_beta	ankle_angle_r	subtalar_angle_r	mtp_angle_r	hip_flexion_l	hip_adduction_l	hip_rotation_l	knee_angle_l	knee_angle_l_beta	ankle_angle_l	subtalar_angle_l	mtp_angle_l	lumbar_extension	lumbar_bending	lumbar_rotation	arm_flex_r	arm_add_r	arm_rot_r	elbow_flex_r	pro_sup_r	arm_flex_l	arm_add_l	arm_rot_l	elbow_flex_l	pro_sup_l
      1.72500000	    -27.78372209	     -2.96794569	      1.73583150	     -0.93571968	      1.05184476	     -0.08088670	     64.20455865	     -0.00756015	      0.42172314	     74.34672150	      1.29759508	     29.13152599	    -26.72427301	     -7.49999987	     65.95725106	     -2.10750551	      5.51604319	     76.22386299	      1.33035738	     36.19428339	    -10.35227406	     -7.49999987	    -32.55902317	      4.79108806	     -0.61879345	     23.52725028	     -8.34244600	     66.81400252	     13.65819341	     47.05792486	     20.10688789	     -9.73786048	     79.12156015	     12.08152259	     50.39253095
      1.72916670	    -27.84858226	     -3.30267439	      2.20475821	     -0.93683942	      1.04864415	     -0.08113826	     64.24375334	     -0.34238048	     -0.23437213	     75.24798691	      1.31332513	     29.41361222	    -27.36279889	     -7.49999987	     66.39362867	     -1.73210857	      6.35593658	     77.20983936	      1.34756591	     37.13870521	     -9.76666968	     -7.49999987	    -32.36660298	      5.56414881	     -0.43297613	     23.96895404	     -8.52878595	     65.91266617	     13.99488865	     47.87883144	     21.33541368	    -10.38015054	     78.54703419	     12.80487817	     51.03747334
      1.73333330	    -27.69203766	     -3.54648577	      2.51362428	     -0.93762483	      1.05390920	     -0.08145713	     63.81247463	     -0.50840204	     -0.77719858	     75.41006659	      1.31615395	     29.15739146	    -28.28336251	     -7.49999987	     66.05847483	     -1.34381681	      7.07721176	     77.14578913	      1.34644802	     37.21501016	     -9.43913871	     -7.49999987	    -32.66836091	      5.87237815	     -0.22974910	     24.90724968	     -7.98999233	     66.22463967	     12.91538716	     47.83267579	     22.95560262	    -10.54787686	     79.59000082	     12.46862837	     51.13391970
      1.73750000	    -27.82585182	     -3.64323852	      2.95388507	     -0.93130476	      1.05320746	     -0.07683758	     63.66965624	     -0.41307731	     -0.84586514	     75.47815086	      1.31734225	     29.43377269	    -28.61480055	     -7.49999987	     65.83132732	     -1.13884989	      7.67238572	     76.87978875	      1.34180544	     37.41652126	     -9.23329223	     -7.49999987	    -32.46791779	      5.78098674	     -0.20410320	     25.56263838	     -7.45763310	     66.26721657	     13.01048284	     47.84769854	     24.22021065	    -10.83562978	     79.57385831	     12.30629370	     51.12073752
      1.74166670	    -27.28221360	     -3.88110287	      3.28012811	     -0.93205381	      1.05124623	     -0.07702887	     63.02088274	     -0.08045686	     -0.86746236	     75.34521449	      1.31502207	     28.94963800	    -29.42057332	     -7.49999987	     65.25903736	     -1.21229943	      8.06282297	     76.89941906	      1.34214806	     37.86007825	     -8.55449069	     -7.49999987	    -33.28695969	      5.79232119	     -0.30205758	     27.50350033	     -6.77418986	     66.12840531	     12.59108633	     48.88532253	     25.73833435	    -10.92694157	     79.58812610	     11.87435208	     51.76147890
      1.74583330	    -27.05328496	     -4.18542877	      3.85169563	     -0.92587212	      1.04780293	     -0.07282753	     62.74036509	      0.12851380	     -1.16960431	     75.58604159	      1.31922529	     30.13408674	    -28.20275810	     -7.49999987	     64.81288806	     -1.23378023	      8.65923755	     77.13097198	      1.34618942	     38.54999580	     -7.85619518	     -7.49999987	    -33.25765741	      5.87249803	     -0.29772285	     28.74216192	     -6.05451203	     66.97337960	     12.05145398	     49.19288721	     27.31887066	    -11.25343781	     79.89380612	     10.98997938	     51.70677435
      1.75000000	    -27.09881365	     -4.19605892	      3.96571922	     -0.93240458	      1.04763497	     -0.07755197	     63.13062214	      0.24093330	     -1.11949010	     76.11737414	      1.32849880	     30.39895742	    -28.31998283	     -7.49999987	     65.44326859	     -0.93792708	      8.76076374	     77.84305241	      1.35861756	     38.55095459	     -8.06303360	     -7.49999987	    -33.24601035	      5.80082788	     -0.19094798	     30.30159656	     -6.00261408	     67.00750170	     12.02644853	     49.22828187	     28.95973963	    -11.52204479	     79.77648952	     10.78856881	     51.66081079
      1.75416670	    -27.28102709	     -4.34469193	      4.14370940	     -0.92558964	      1.04716545	     -0.07283768	     63.28688676	      0.50997356	     -1.21055556	     76.66007168	      1.33797066	     30.81243066	    -28.53178124	     -7.49999987	     65.68367712	     -0.87295982	      9.03333183	     77.93248650	      1.36017848	     38.46665462	     -8.29591586	     -7.49999987	    -32.90427170	      5.75364351	     -0.01259124	     31.51490286	     -5.90072060	     67.12281405	     11.94479667	     49.29620797	     30.75778404	    -11.64592656	     79.61586512	     10.61476023	     51.60296878
      1.75833330	    -27.46701071	     -4.39117477	      4.57958911	     -0.91975313	      1.04737108	     -0.06920292	     62.91802944	      0.31546768	     -1.76096767	     76.67748563	      1.33827459	     31.36867119	    -28.58889678	     -7.49999987	     65.69465346	     -0.74992786	      9.37471892	     77.84074030	      1.35857721	     38.32321955	     -8.21880021	     -7.49999987	    -32.67482078	      5.60199354	      0.43788969	     32.18301801	     -5.98079710	     67.44668779	     11.50026209	     49.44790944	     32.51060707	    -11.46350354	     79.41976221	     10.49739701	     51.52407111
      1.76250000	    -27.40804510	     -4.40451297	      4.80823649	     -0.92524768	      1.04671434	     -0.07381214	     62.97726517	      0.01070830	     -2.02740773	     76.99776566	      1.34386453	     32.11744655	    -27.74546995	     -7.49999987	     65.71178276	     -0.47734175	      9.56962391	     78.00215418	      1.36139441	     38.12270329	     -8.62426402	     -7.49999987	    -32.87014970	      5.58899307	      1.19192461	     33.80712751	     -6.42415577	     73.53840366	      9.42460731	     51.68287259	     34.21685686	    -10.48171435	     79.06733057	      9.42396098	     51.28386101
      1.76666670	    -27.68466948	     -4.44344267	      5.21542407	     -0.91913758	      1.04698345	     -0.06934731	     63.06044495	     -0.08657728	     -2.13992797	     76.88398908	      1.34187875	     32.30794632	    -27.78393208	     -7.49999987	     65.86272711	     -0.38126072	      9.74369425	     77.84868942	      1.35871595	     38.02474158	     -8.57274187	     -7.49999987	    -32.60278751	      5.38785043	      1.30123713	     34.84808499	     -6.42208940	     73.54749820	      9.43589562	     51.68089389	     35.60009801	    -10.52750339	     78.95078730	      9.43890957	     51.25728594
      1.77083330	    -27.96810196	     -4.28670249	      5.59617628	     -0.91822124	      1.04649239	     -0.06954127	     62.92569435	     -0.63247144	     -2.49456983	     76.63961031	      1.33761354	     32.98781388	    -27.05260261	     -7.49999987	     65.84456029	     -0.00747404	     10.00134090	     77.74624913	      1.35692803	     37.87621367	     -8.52850889	     -7.49999987	    -32.67406414	      4.90679291	      1.66410698	     35.96504366	     -6.64395613	     73.00619482	      9.87628500	     53.19554688	     37.13395108	    -10.24537388	     77.09382387	      9.49400171	     52.58599395
      1.77500000	    -28.25570679	     -4.28161650	      5.16043990	     -0.91786333	      1.05347751	     -0.06937522	     63.34171371	     -1.08509865	     -3.06498010	     76.44283841	      1.33417922	     32.66234573	    -25.29390687	     -7.49999987	     65.58168887	     -0.29139253	      9.98689692	     77.03475029	      1.34451003	     37.40427419	     -8.70312276	     -7.49999987	    -32.84320023	      4.43732748	      2.20233447	     38.31672014	     -6.86549801	     75.00418075	     10.32584440	     53.74171534	     38.90528887	    -10.27016050	     76.67342914	      9.06929601	     52.51749438
      1.77916670	    -28.44258126	     -4.51635745	      4.64904247	     -0.90516073	      1.05007169	     -0.05977860	     62.83516873	     -0.70404342	     -3.86384286	     75.73366578	      1.32180182	     32.71424288	    -24.21077754	     -7.49999987	     65.15192389	     -1.24352230	     10.26156426	     76.82528170	      1.34085411	     37.56878560	     -8.47594722	     -7.49999987	    -32.70189392	      4.05258005	      3.18827716	     39.74910824	     -6.84812641	     74.58022153	     10.07540768	     54.03007981	     40.55661556	    -10.30679671	     75.96913456	      8.94613849	     52.76951015
